   <svg width="16" height="16" viewBox="0 0 16 16" fill="none" xmlns="http://www.w3.org/2000/svg">
       <path
        d="M3.94841 2.77582C3.62534 2.45712 3.06669 2.49162 2.70048 2.85287C2.33426 3.21413 2.2993 3.76522 2.62237 4.08392L6.71039 8.11663L2.62106 12.1506C2.29799 12.4693 2.33444 13.0219 2.70048 13.3804C3.06669 13.7416 3.62534 13.7761 3.94841 13.4574L8.03643 9.42473L12.2819 13.6127C12.605 13.9314 13.1636 13.8969 13.5298 13.5357C13.896 13.1744 13.931 12.6233 13.6079 12.3046L9.36248 8.11663L13.6079 3.92861C13.931 3.60992 13.896 3.05882 13.5298 2.69757C13.1636 2.33631 12.605 2.30182 12.2819 2.62051L8.03643 6.80853L3.94841 2.77582Z"
        fill="black"
        fillOpacity="0.6"
      />
  </svg>